<?xml version="1.0" encoding="UTF-8"?>
<svg width="30px" height="47px" viewBox="0 0 30 47" version="1.1" xmlns="http://www.w3.org/2000/svg" xmlns:xlink="http://www.w3.org/1999/xlink">
    <title>keys-success</title>
    <g id="keys-success" stroke="none" stroke-width="1" fill="none" fill-rule="evenodd" stroke-linecap="round" stroke-linejoin="round">
        <g id="Group-Copy" transform="translate(-4.000000, 2.000000)" stroke="#00DD80" stroke-width="2.99999982">
            <path d="M26.9671923,24.0837023 C29.5546611,22.6279976 31.3037566,19.90106 31.3011238,16.773967 C31.3143987,12.112221 27.4630942,8.3425126 22.7137613,8.33683288 C17.9529057,8.3520183 14.0940756,12.1294332 14.0817591,16.7911782 C14.0843995,19.9106881 15.8213582,22.6265582 18.3992168,24.0799436 L18.3958112,27.4952018 L21.1296162,30.1987008 L19.0322816,32.2709932 L21.0402648,34.2557678 L18.9755473,36.2995908 L21.0639609,38.3676994 L18.9714197,40.4390392 L22.5373318,43.9692162 C23.0764551,44.4795911 23.4521719,44.492486 23.9894519,43.9677647 L26.9502601,41.0642559 L26.9671923,24.0837023 Z" id="Path" transform="translate(22.691459, 26.346748) rotate(-20.000000) translate(-22.691459, -26.346748) "></path>
            <path d="M7.01184841,26.5908 L9.73975489,29.3047078 L7.65585122,31.3759572 L9.65949982,33.3683753 L7.60801253,35.4111778 L9.69192616,37.4872427 L7.61279333,39.5575481 L11.1710197,43.1013084 C11.7089308,43.6136978 12.0830667,43.6274228 12.6169192,43.102979 L15.5588141,40.2009794 L15.5473675,30.2734163" id="Path" transform="translate(11.285331, 35.040889) rotate(24.000000) translate(-11.285331, -35.040889) "></path>
            <path d="M19.2268765,15.5 C23.4524223,15.5 26.8779041,12.0302068 26.8779041,7.75 C26.8779041,3.46979319 23.4524223,0 19.2268765,0 C15.3048703,0 12.0721124,2.98919673 11.6279041,6.84113278" id="Oval-2"></path>
        </g>
    </g>
</svg>